<svg xmlns="http://www.w3.org/2000/svg" viewBox="0 0 486 486">
    <defs>
        <style lang="css">
            .cls-1 {
                fill:#ff8904;
            }
            .cls-2 {
                fill:#f5f5f4;
            }
            .cls-3 {
                fill:#1c1917;
            }
            .cls-4 {
                fill:#ff8904;
            }
            .cls-5 {
                fill:#fb2c36;
            }
        </style>
    </defs>
    <title>Logo</title>
    <path class="cls-1"
        d="M13.72,265.86l0-.34c-.32-5.64-.12-11.42.12-17.07.34-7.88.92-15.67,1.92-23.5a243.12,243.12,0,0,1,10.52-47,231.32,231.32,0,0,1,30.27-59A274,274,0,0,1,75.8,95.07c33.63-37.81,78.32-64.92,127.65-76.28a205.64,205.64,0,0,1,34.27-5.24,279.48,279.48,0,0,1,39,.09,229.74,229.74,0,0,1,35.34,5.93,238.15,238.15,0,0,1,59.74,23c17.86,9.94,34.64,22.65,49.86,36.27a201,201,0,0,1,23.8,25.36c2.91,3.7,5.59,7.6,8.32,11.44,4.46,6.27,8.79,12.6,12.67,19.25a240.3,240.3,0,0,1,29.59,82.21A290.54,290.54,0,0,1,499,246.89l0,.27a236.84,236.84,0,0,1-14.91,93.22,245.55,245.55,0,0,1-25.26,48.69A224.8,224.8,0,0,1,438,416.37a278.2,278.2,0,0,1-39.82,36.41,237.37,237.37,0,0,1-90.21,40.88,220.51,220.51,0,0,1-37.77,5.23c-19.8.87-39.72,0-59.24-3.55a221.93,221.93,0,0,1-40.44-11.88A244,244,0,0,1,94.42,436.2C67.59,411.64,46,382,31.84,348.45c-2.11-5-4.31-10.07-6.05-15.25C18.51,311.65,14.73,288.55,13.72,265.86Z" transform="translate(-13.54 -12.91)"/>
    <path class="cls-2"
        d="M104.16,358.75l0-204.69c.73-6,4.94-11.89,9.66-15.42a20.63,20.63,0,0,1,10.58-4.28c3.78-.3,7.68-.09,11.47-.06,7.06,0,14.13.16,21.19,0,13.95-.22,27.87,0,41.81,0,14.76,0,29.53-.2,44.3-.24,9,0,17.92.15,26.89.13,28.69-.05,57.39-.13,86.08,0,7.47.05,14.95.05,22.43.09,3.6,0,7.6-.27,11.16.26l.39.07A20.46,20.46,0,0,1,398,138a25.56,25.56,0,0,1,10.57,16.6c.43,4.28.06,8.71.1,13,.09,10,.2,19.87.09,29.82-.23,19.68,0,39.38-.06,59.06q0,34.34,0,68.69c0,10.68.85,21.71-.13,32.34a22.94,22.94,0,0,1-4.06,10.34c-3.25,4.75-8.1,8.81-13.91,9.84a60,60,0,0,1-11.05.46c-5.33-.05-10.66-.2-16-.17q-34.1.18-68.17.18l-114.78,0c-13.45,0-26.91,0-40.37-.11-5.16,0-10.5.39-15.63.05a21.6,21.6,0,0,1-10.79-4.27A23,23,0,0,1,104.16,358.75Z" transform="translate(-13.54 -12.91)"/>
    <path class="cls-4"
        d="M137.18,333a22.21,22.21,0,0,1,3.69-15A22.74,22.74,0,0,1,156,307.87a23.26,23.26,0,0,1,7.63-.26l.49.06a25.13,25.13,0,0,1,11.64,4.82c5.15,3.93,7.76,9.6,8.61,15.9.27,6.49-.83,12.19-4.87,17.43a22.56,22.56,0,0,1-14.81,8.8,25.24,25.24,0,0,1-18.79-5.22A24.52,24.52,0,0,1,137.18,333Z" transform="translate(-13.54 -12.91)"/>
    <path class="cls-3"
        d="M327.94,332a23.27,23.27,0,0,1,22.19-24.53A25.16,25.16,0,0,1,368.45,314c4.6,4.14,6.66,10.12,7,16.14a22.54,22.54,0,0,1-4.86,15.41c-3.71,4.64-9.43,8.45-15.45,9-6.5.64-13.48-.94-18.56-5.16A25.55,25.55,0,0,1,327.94,332Z" transform="translate(-13.54 -12.91)"/>
    <path class="cls-3"
        d="M137.18,183.54A24.37,24.37,0,0,1,141.29,168c4-5.68,10.14-8.94,16.88-10.07,5.63-.94,12.06,1,16.65,4.28,5.73,4.14,8.65,9.71,9.74,16.59.3,6.78-.87,12.36-5.26,17.7a23.42,23.42,0,0,1-16.19,8.72,24.7,24.7,0,0,1-18-5.48C140.05,195.44,137.75,190,137.18,183.54Z" transform="translate(-13.54 -12.91)"/>
    <path class="cls-3"
        d="M232.68,331.57a22.48,22.48,0,0,1,4.7-15.49c4.35-5.28,9.84-7.72,16.56-8.37a24.41,24.41,0,0,1,18.33,5.76c5.22,4.39,7.48,10.33,8,17a23,23,0,0,1-4.78,15.25,22.71,22.71,0,0,1-15.26,9,25.2,25.2,0,0,1-18.79-5.19C235.81,344.83,233.34,338.7,232.68,331.57Z" transform="translate(-13.54 -12.91)"/>
    <path class="cls-3"
        d="M232.66,184.59a25.1,25.1,0,0,1,4.08-16.65,22.46,22.46,0,0,1,14-9.49,25.44,25.44,0,0,1,19.83,3.86c5.53,3.76,8.48,9.92,9.68,16.33a22.78,22.78,0,0,1-4,16.29,24.54,24.54,0,0,1-16.56,10.13,22.27,22.27,0,0,1-17.13-4A24.28,24.28,0,0,1,232.66,184.59Z" transform="translate(-13.54 -12.91)"/>
    <path class="cls-4"
        d="M327.67,183c-.56-4.56,1-9.78,3.45-13.62a25.25,25.25,0,0,1,15.68-11.22l1.09-.23a23.73,23.73,0,0,1,17.78,4.45c6.1,4.31,9,10.07,10.23,17.27.79,5.62-1.16,10.91-4.45,15.39a25.4,25.4,0,0,1-17,10.21c-6,.86-12.45-1.28-17.21-4.93C331.44,195.79,328.62,190.13,327.67,183Z" transform="translate(-13.54 -12.91)"/>
    <path class="cls-5"
        d="M136.93,258.65a23.8,23.8,0,0,1,4-16.3,25.22,25.22,0,0,1,16.61-10,24.74,24.74,0,0,1,17.33,4.55c5.73,4.26,8.39,9.49,9.46,16.46a33.13,33.13,0,0,1-.6,8.19,24.18,24.18,0,0,1-11,15.32,21.73,21.73,0,0,1-16.61,3,27,27,0,0,1-10.82-5.23C140.1,270.49,137.64,265.11,136.93,258.65Z" transform="translate(-13.54 -12.91)"/>
    <path class="cls-5"
        d="M232.43,258.13a26.34,26.34,0,0,1,2.36-12.92,23.1,23.1,0,0,1,13-11.46l.45-.15a22.68,22.68,0,0,1,4.22-1.06,24.94,24.94,0,0,1,19,5,24.11,24.11,0,0,1,8.77,16.68,27.23,27.23,0,0,1-.14,5.49,23.79,23.79,0,0,1-9.49,15.85,24.56,24.56,0,0,1-17.72,4.5,24.13,24.13,0,0,1-11.53-4.92C236,270.9,233.15,264.79,232.43,258.13Z" transform="translate(-13.54 -12.91)"/>
    <path class="cls-3"
        d="M327.93,258.25c-.79-5.59,1.38-12.3,4.61-16.85,3.44-4.86,9.48-8,15.26-9a24.09,24.09,0,0,1,18.18,4.2c6.09,4.33,8.89,10.11,10.09,17.34a24.33,24.33,0,0,1-4.62,16.21c-3.9,5.27-9.31,9.08-15.88,10a24.28,24.28,0,0,1-17.84-4.37C331.83,271.19,328.86,265.54,327.93,258.25Z" transform="translate(-13.54 -12.91)"/>
</svg>