<?xml version="1.0" encoding="utf-8" ?>
<svg xmlns="http://www.w3.org/2000/svg" xmlns:xlink="http://www.w3.org/1999/xlink" width="512" height="512" transform="rotate(90)">
	<path fill="#5B06D6" transform="scale(0.5 0.5)" d="M493.187 26.7867L493.864 26.746C505.152 26.1001 516.716 26.5039 528 26.9838C543.768 27.6543 559.341 28.8219 575 30.8221C606.97 34.9057 638.394 41.5562 668.97 51.85C710.685 65.8941 751.067 86.998 786.999 112.392C803.662 124.168 819.532 137.385 834.774 150.941C910.385 218.189 964.601 307.572 987.324 406.24C992.5 428.717 996.478 451.723 997.799 474.78C999.284 500.723 999.778 526.937 997.629 552.86C995.65 576.748 991.426 600.272 985.773 623.543C975.68 665.09 960.518 705.602 939.694 743.01C919.807 778.735 894.392 812.299 867.14 842.732C851.715 859.957 834.608 876.054 816.43 890.342C809.023 896.164 801.231 901.521 793.551 906.977C781.001 915.893 768.354 924.556 755.047 932.324C704.967 961.558 647.918 982.36 590.636 991.492C570.947 994.631 551.027 996.239 531.125 997.345L530.594 997.377C468.01 1000.22 402.703 989.741 344.144 967.554C309.811 954.546 277.316 937.328 246.77 917.045C227.604 904.319 209.189 890.787 192.165 875.278C165.614 851.09 140.739 824.535 119.343 795.638C79.7058 742.108 51.8402 680.245 37.5963 615.222C32.1349 590.291 28.2303 565.209 27.1184 539.682C25.3933 500.074 27.0434 460.239 34.2218 421.193C39.267 393.751 47.8035 366.269 57.9865 340.326C80.1211 283.934 111.612 232.887 152.516 188.186C201.633 134.51 260.87 91.3283 328 63.0277C338.056 58.7884 348.156 54.401 358.5 50.9085C401.597 36.3564 447.808 28.7979 493.187 26.7867Z"/>
	<path fill="#F4F4F5" transform="scale(0.5 0.5)" d="M307.413 207.665L716.784 207.575C728.753 209.033 740.574 217.454 747.629 226.901C752.252 233.091 755.56 240.307 756.177 248.062C756.777 255.612 756.363 263.425 756.308 271.002C756.205 285.128 755.99 299.26 756.209 313.385C756.64 341.269 756.3 369.119 756.267 397C756.231 426.528 756.669 456.064 756.74 485.592C756.783 503.517 756.443 521.443 756.479 539.37C756.594 596.75 756.747 654.152 756.388 711.531C756.294 726.488 756.291 741.445 756.203 756.403C756.161 763.603 756.749 771.604 755.678 778.709L755.549 779.5C754.686 785.071 751.97 790.587 748.858 795.25C741.23 806.68 728.983 813.824 715.666 816.402C707.101 817.266 698.247 816.516 689.628 816.598C669.735 816.786 649.883 817.004 629.987 816.772C590.632 816.315 551.235 816.698 511.874 816.655C466.081 816.605 420.288 816.649 374.495 816.614C353.122 816.598 331.068 818.322 309.804 816.356C302.576 815.688 295.075 812.314 289.127 808.239C279.631 801.733 271.512 792.033 269.437 780.422C268.14 773.167 268.458 765.656 268.529 758.315C268.631 747.657 268.926 736.99 268.87 726.333C268.63 680.885 268.531 635.444 268.512 589.994C268.479 513.478 268.473 436.961 268.469 360.444C268.468 333.53 268.496 306.621 268.685 279.708C268.757 269.388 267.909 258.693 268.585 248.436C269.098 240.637 272.638 233.151 277.117 226.864C284.435 216.591 294.983 209.699 307.413 207.665Z"/>
	<path fill="#27272A" transform="scale(0.5 0.5)" d="M358.95 273.691C369.034 272.164 380.467 275.46 388.864 281.085C399.936 288.502 406.54 298.255 409.176 311.25C410.177 316.185 410.35 321.526 409.69 326.522L409.557 327.5C408.509 335.733 404.944 344.167 399.918 350.769C392.069 361.078 380.724 366.307 368.125 368.006C355.15 368.538 343.737 366.343 333.271 358.25C323.999 351.08 317.058 340.435 315.659 328.643C314.072 315.266 317.651 301.596 326.1 291.055C334.118 281.053 346.347 275.095 358.95 273.691Z"/>
	<path fill="#27272A" transform="scale(0.5 0.5)" d="M360.831 655.212C373.345 654.344 385.17 658.837 394.508 667.075C404.091 675.529 409.159 686.934 409.878 699.592C410.649 713.165 405.975 726.143 396.897 736.245C388.636 745.436 376.673 749.565 364.625 750.234C353.442 750.828 342.588 747.553 333.809 740.526C324.517 733.089 316.914 721.666 315.73 709.614C314.453 696.61 317.597 682.667 326.041 672.504C334.574 662.233 347.729 656.332 360.831 655.212Z"/>
	<path fill="#27272A" transform="scale(0.5 0.5)" d="M657.825 273.708C669.002 273.123 679.741 275.43 689 281.928C700.36 289.901 706.893 302.196 709.144 315.682C711.024 326.944 707.221 339.799 700.584 348.984C692.308 360.436 681.161 366.282 667.402 368.458C653.841 369.052 642.693 366.727 632.011 357.94C621.982 349.69 615.749 338.542 614.566 325.554C613.4 312.746 617.213 299.469 625.527 289.571C634.031 279.446 644.847 274.848 657.825 273.708Z"/>
	<path fill="#27272A" transform="scale(0.5 0.5)" d="M361.77 464.706C372.624 463.986 384.269 467.135 392.738 474.106C403.313 482.808 408.178 493.784 409.492 507.214C410.81 520.695 406.667 533.554 397.974 543.88C389.195 554.309 377.299 558.837 364.026 559.894C352.609 560.13 342.564 557.366 333.517 550.346C323.863 542.855 316.871 532.109 315.5 519.816C314.024 506.592 317.315 492.592 325.894 482.244C335.243 470.968 347.508 466.019 361.77 464.706Z"/>
	<path fill="#27272A" transform="scale(0.5 0.5)" d="M655.727 464.651C667.663 463.394 678.979 466.267 689.026 472.825C698.533 479.03 705.825 489.693 708.015 500.871C710.796 515.063 708.455 528.531 700.283 540.547C692.766 551.599 680.44 557.492 667.617 559.894C655.64 561.201 644.984 558.937 635.052 551.967C623.76 544.042 616.969 532.343 614.785 518.829C612.8 506.544 615.404 494.641 622.818 484.571C631.042 473.402 642.073 466.753 655.727 464.651Z"/>
	<path fill="#F97415" transform="scale(0.5 0.5)" d="M659.008 654.68C668.136 653.555 678.569 656.711 686.25 661.586C697.545 668.755 705.705 679.855 708.691 692.933L709.154 695.127C711.227 708.019 707.713 720.108 700.244 730.674C691.62 742.872 680.112 748.616 665.705 751.138C654.458 752.709 643.896 748.816 634.936 742.229C623.763 734.015 616.474 722.016 614.508 708.304C612.789 696.312 617.074 683.406 624.375 673.886C633.329 662.213 644.645 656.583 659.008 654.68Z"/>
	<path fill="#F97415" transform="scale(0.5 0.5)" d="M507.603 273.196C518.215 271.571 531.531 274.885 540.199 281.186C550.976 289.019 558.271 301.216 560.193 314.393C561.895 326.059 558.054 339.673 551.087 349.053C542.568 360.522 532.098 365.844 518.174 367.973C512.518 368.068 507.338 368.052 501.787 366.777C488.879 363.811 478.107 355.989 471.141 344.692C465.051 334.816 462.375 322.904 465.222 311.485C467.264 303.292 470.387 296.484 475.696 289.836C483.925 279.531 494.693 274.61 507.603 273.196Z"/>
	<path fill="#F97415" transform="scale(0.5 0.5)" d="M508.646 464.194C517.593 463.739 526.371 465.015 534.482 468.925C544.949 473.969 553.681 483.893 557.401 494.922L557.699 495.825C558.627 498.587 559.438 501.354 559.82 504.25C561.608 517.786 558.426 531.418 549.846 542.192C541.526 552.639 529.591 558.342 516.489 559.737C512.786 559.986 509.185 559.962 505.5 559.458C492.764 557.719 481.47 550.783 473.8 540.48C466.538 530.725 462.95 517.111 464.805 505.041C466.108 496.56 469.28 488.728 474.647 481.981C483.116 471.336 495.323 465.632 508.646 464.194Z"/>
	<path fill="#F97415" transform="scale(0.5 0.5)" d="M508.408 655.195C519.591 653.617 533.008 657.956 542.114 664.412C551.832 671.301 558.166 683.373 560.191 694.947C562.431 707.747 559.327 720.696 551.791 731.294C543.129 743.475 531.56 749.078 517.111 751.482C505.553 752.317 494.024 749.128 484.686 742.232C474.144 734.447 466.535 723.621 464.701 710.472C462.991 698.217 465.849 684.688 473.456 674.799C482.529 663.003 493.836 657.056 508.408 655.195Z"/>
</svg>
